<svg xmlns="http://www.w3.org/2000/svg" viewBox="0 0 141.82 52.58"><defs><style>.cls-1{fill:#13274b;}.cls-2{fill:#acadac;}</style></defs><g id="Layer_2" data-name="Layer 2"><g id="Layer_1-2" data-name="Layer 1"><path class="cls-1" d="M5.16,43.48a2.44,2.44,0,0,0-1.43-.42,2.52,2.52,0,0,0-1.21.27,2.3,2.3,0,0,0-.83.71,3,3,0,0,0-.48,1,4.27,4.27,0,0,0-.16,1.19,4.83,4.83,0,0,0,.16,1.28,3,3,0,0,0,.48,1.05,2.32,2.32,0,0,0,.83.72,2.71,2.71,0,0,0,1.22.26,2.36,2.36,0,0,0,.92-.17,1.9,1.9,0,0,0,.7-.48,2.07,2.07,0,0,0,.46-.72,3,3,0,0,0,.2-.91H7.07a3.56,3.56,0,0,1-1,2.33,3.34,3.34,0,0,1-2.39.83,3.77,3.77,0,0,1-1.6-.32,3.1,3.1,0,0,1-1.14-.87A3.59,3.59,0,0,1,.23,48,5.71,5.71,0,0,1,0,46.34a5.29,5.29,0,0,1,.24-1.62A3.83,3.83,0,0,1,1,43.4a3.28,3.28,0,0,1,1.17-.9,3.92,3.92,0,0,1,1.61-.32,4.08,4.08,0,0,1,1.17.16,3.27,3.27,0,0,1,1,.49,2.76,2.76,0,0,1,.72.8A2.85,2.85,0,0,1,7,44.75h-1A1.91,1.91,0,0,0,5.16,43.48Z"/><path class="cls-1" d="M15.63,50.25a1.41,1.41,0,0,1-.68.14.85.85,0,0,1-.58-.2.91.91,0,0,1-.21-.67,2.27,2.27,0,0,1-.91.67,3.08,3.08,0,0,1-1.11.2,2.86,2.86,0,0,1-.73-.09A1.8,1.8,0,0,1,10.8,50a1.33,1.33,0,0,1-.4-.5,1.64,1.64,0,0,1-.15-.73,1.7,1.7,0,0,1,.16-.8,1.53,1.53,0,0,1,.44-.5,2.1,2.1,0,0,1,.62-.3c.23-.06.47-.12.72-.16l.73-.12a3.45,3.45,0,0,0,.62-.11A1.18,1.18,0,0,0,14,46.6a.52.52,0,0,0,.15-.4.9.9,0,0,0-.12-.5.74.74,0,0,0-.29-.29,1.16,1.16,0,0,0-.41-.13,2.28,2.28,0,0,0-.45,0,2,2,0,0,0-1,.23,1,1,0,0,0-.43.86h-.94a2,2,0,0,1,.22-.9,1.67,1.67,0,0,1,.53-.59,2.37,2.37,0,0,1,.76-.33,4.37,4.37,0,0,1,.91-.1,4.9,4.9,0,0,1,.77.06,1.87,1.87,0,0,1,.69.23,1.22,1.22,0,0,1,.5.48A1.46,1.46,0,0,1,15,46v2.94a2,2,0,0,0,0,.49c0,.1.11.15.26.15a1.11,1.11,0,0,0,.29,0ZM14.1,47.31a1.15,1.15,0,0,1-.46.2l-.61.1-.63.08a2.86,2.86,0,0,0-.58.16,1,1,0,0,0-.41.32.84.84,0,0,0-.17.55.75.75,0,0,0,.1.39.67.67,0,0,0,.24.26,1,1,0,0,0,.35.15,1.87,1.87,0,0,0,.42,0,2.13,2.13,0,0,0,.8-.13,1.58,1.58,0,0,0,.54-.32A1.2,1.2,0,0,0,14,48.7a1,1,0,0,0,.1-.43Z"/><path class="cls-1" d="M19.81,44.55v.77h0a1.4,1.4,0,0,1,.73-.69,2.84,2.84,0,0,1,1.1-.22,2.64,2.64,0,0,1,1.16.25,2.3,2.3,0,0,1,.82.66,3,3,0,0,1,.49,1,4,4,0,0,1,.16,1.15,4,4,0,0,1-.16,1.16,2.7,2.7,0,0,1-.48.94,2.36,2.36,0,0,1-.82.64,2.74,2.74,0,0,1-1.15.23,2.79,2.79,0,0,1-.47,0,2.46,2.46,0,0,1-.51-.15,1.64,1.64,0,0,1-.48-.27,1.43,1.43,0,0,1-.39-.42h0v2.94h-.94v-7.9Zm3.38,2a1.94,1.94,0,0,0-.32-.68,1.59,1.59,0,0,0-.55-.48,1.82,1.82,0,0,0-1.6,0,1.7,1.7,0,0,0-.54.49,2.11,2.11,0,0,0-.31.7,3.39,3.39,0,0,0-.09.78,3.23,3.23,0,0,0,.1.82,2,2,0,0,0,.31.69,1.63,1.63,0,0,0,.56.48,1.78,1.78,0,0,0,.83.18,1.58,1.58,0,0,0,.82-.19,1.53,1.53,0,0,0,.52-.49,2.36,2.36,0,0,0,.29-.71,3.75,3.75,0,0,0,.09-.82A2.88,2.88,0,0,0,23.19,46.58Z"/><path class="cls-1" d="M27.79,43.52V42.37h.94v1.15Zm.94,1v5.72h-.94V44.55Z"/><path class="cls-1" d="M35,44.55v.83H33.84v3.55a.94.94,0,0,0,0,.26.31.31,0,0,0,.11.16.4.4,0,0,0,.21.07l.36,0H35v.83h-.72a3.65,3.65,0,0,1-.63-.05.9.9,0,0,1-.42-.18.78.78,0,0,1-.24-.38,2.22,2.22,0,0,1-.08-.64V45.38h-1v-.83h1V42.83h1v1.72Z"/><path class="cls-1" d="M43.42,50.25a1.41,1.41,0,0,1-.68.14.85.85,0,0,1-.58-.2.91.91,0,0,1-.21-.67,2.31,2.31,0,0,1-.9.67,3.18,3.18,0,0,1-1.12.2,2.92,2.92,0,0,1-.73-.09,1.8,1.8,0,0,1-.61-.27,1.33,1.33,0,0,1-.4-.5A1.64,1.64,0,0,1,38,48.8a1.69,1.69,0,0,1,.17-.8,1.4,1.4,0,0,1,.43-.5,2.1,2.1,0,0,1,.62-.3c.24-.06.47-.12.72-.16l.73-.12a3.3,3.3,0,0,0,.62-.11,1.1,1.1,0,0,0,.42-.21.52.52,0,0,0,.15-.4,1,1,0,0,0-.11-.5.83.83,0,0,0-.3-.29,1.1,1.1,0,0,0-.41-.13,2.28,2.28,0,0,0-.45,0,2,2,0,0,0-1,.23,1,1,0,0,0-.43.86h-.94a2.17,2.17,0,0,1,.22-.9,1.7,1.7,0,0,1,.54-.59,2.32,2.32,0,0,1,.75-.33,4.47,4.47,0,0,1,.92-.1,5.09,5.09,0,0,1,.77.06,2,2,0,0,1,.69.23,1.25,1.25,0,0,1,.49.48,1.46,1.46,0,0,1,.19.8v2.94a2.72,2.72,0,0,0,0,.49c0,.1.11.15.26.15a1.11,1.11,0,0,0,.29,0Zm-1.53-2.94a1.15,1.15,0,0,1-.46.2l-.61.1-.63.08a2.86,2.86,0,0,0-.58.16,1,1,0,0,0-.41.32.84.84,0,0,0-.16.55.74.74,0,0,0,.33.65,1,1,0,0,0,.35.15,2,2,0,0,0,.42,0,2.13,2.13,0,0,0,.8-.13,1.58,1.58,0,0,0,.54-.32,1.09,1.09,0,0,0,.31-.41,1,1,0,0,0,.1-.43Z"/><path class="cls-1" d="M47.63,42.37v7.9h-1v-7.9Z"/><path class="cls-1" d="M58.45,42.37,60.94,49l2.5-6.64h1.44v7.9h-1V43.69h0l-2.47,6.58H60.5L58,43.69h0v6.58H57v-7.9Z"/><path class="cls-1" d="M73.88,50.25a1.41,1.41,0,0,1-.68.14.85.85,0,0,1-.58-.2.91.91,0,0,1-.21-.67,2.31,2.31,0,0,1-.9.67,3.18,3.18,0,0,1-1.12.2,2.86,2.86,0,0,1-.73-.09,1.8,1.8,0,0,1-.61-.27,1.33,1.33,0,0,1-.4-.5,1.64,1.64,0,0,1-.15-.73,1.69,1.69,0,0,1,.17-.8,1.4,1.4,0,0,1,.43-.5,2.1,2.1,0,0,1,.62-.3c.24-.06.47-.12.72-.16l.73-.12a3.3,3.3,0,0,0,.62-.11,1.18,1.18,0,0,0,.42-.21.52.52,0,0,0,.15-.4,1,1,0,0,0-.11-.5.83.83,0,0,0-.3-.29,1.1,1.1,0,0,0-.41-.13,2.28,2.28,0,0,0-.45,0,2,2,0,0,0-1,.23,1,1,0,0,0-.43.86h-.94a2.17,2.17,0,0,1,.22-.9,1.77,1.77,0,0,1,.53-.59,2.47,2.47,0,0,1,.76-.33,4.47,4.47,0,0,1,.92-.1,4.87,4.87,0,0,1,.76.06,2,2,0,0,1,.7.23,1.25,1.25,0,0,1,.49.48,1.46,1.46,0,0,1,.19.8v2.94a2.72,2.72,0,0,0,0,.49c0,.1.11.15.26.15a1.11,1.11,0,0,0,.29,0Zm-1.53-2.94a1.15,1.15,0,0,1-.46.2l-.61.1-.63.08a2.86,2.86,0,0,0-.58.16,1,1,0,0,0-.41.32.84.84,0,0,0-.16.55.75.75,0,0,0,.09.39.67.67,0,0,0,.24.26,1,1,0,0,0,.35.15,2,2,0,0,0,.42,0,2.13,2.13,0,0,0,.8-.13,1.58,1.58,0,0,0,.54-.32,1.09,1.09,0,0,0,.31-.41,1,1,0,0,0,.1-.43Z"/><path class="cls-1" d="M78,44.55v.9h0a2,2,0,0,1,1.86-1,2.56,2.56,0,0,1,.94.16,1.6,1.6,0,0,1,.61.43,1.57,1.57,0,0,1,.32.66,3.67,3.67,0,0,1,.1.85v3.76h-.94V46.39a1.17,1.17,0,0,0-.31-.84,1.19,1.19,0,0,0-.86-.31,1.88,1.88,0,0,0-.74.14,1.45,1.45,0,0,0-.53.37,1.78,1.78,0,0,0-.32.57A2.72,2.72,0,0,0,78,47v3.23h-.94V44.55Z"/><path class="cls-1" d="M90.65,50.25a1.41,1.41,0,0,1-.68.14.85.85,0,0,1-.58-.2.91.91,0,0,1-.21-.67,2.27,2.27,0,0,1-.91.67,3.08,3.08,0,0,1-1.11.2,2.86,2.86,0,0,1-.73-.09,1.8,1.8,0,0,1-.61-.27,1.33,1.33,0,0,1-.4-.5,1.64,1.64,0,0,1-.15-.73,1.7,1.7,0,0,1,.16-.8,1.53,1.53,0,0,1,.44-.5,2.1,2.1,0,0,1,.62-.3c.23-.06.47-.12.72-.16l.73-.12a3.45,3.45,0,0,0,.62-.11A1.18,1.18,0,0,0,89,46.6a.52.52,0,0,0,.15-.4,1,1,0,0,0-.11-.5.83.83,0,0,0-.3-.29,1.16,1.16,0,0,0-.41-.13,2.28,2.28,0,0,0-.45,0,2,2,0,0,0-1,.23,1,1,0,0,0-.43.86h-.94a2,2,0,0,1,.22-.9,1.67,1.67,0,0,1,.53-.59,2.37,2.37,0,0,1,.76-.33,4.45,4.45,0,0,1,.91-.1,4.9,4.9,0,0,1,.77.06,1.87,1.87,0,0,1,.69.23,1.22,1.22,0,0,1,.5.48,1.46,1.46,0,0,1,.19.8v2.94a2,2,0,0,0,0,.49c0,.1.11.15.26.15a1.11,1.11,0,0,0,.29,0Zm-1.53-2.94a1.15,1.15,0,0,1-.46.2l-.61.1-.63.08a2.86,2.86,0,0,0-.58.16,1,1,0,0,0-.41.32.84.84,0,0,0-.17.55.75.75,0,0,0,.1.39.67.67,0,0,0,.24.26,1,1,0,0,0,.35.15,1.87,1.87,0,0,0,.42,0,2.13,2.13,0,0,0,.8-.13,1.58,1.58,0,0,0,.54-.32A1.2,1.2,0,0,0,89,48.7a1,1,0,0,0,.1-.43Z"/><path class="cls-1" d="M98.15,51.89a2.63,2.63,0,0,1-2,.69,3.88,3.88,0,0,1-.82-.09,2.7,2.7,0,0,1-.75-.28,2,2,0,0,1-.56-.52,1.53,1.53,0,0,1-.24-.79h.94a.71.71,0,0,0,.16.43,1.06,1.06,0,0,0,.37.29,1.74,1.74,0,0,0,.47.16,2.8,2.8,0,0,0,.48,0,1.74,1.74,0,0,0,.79-.16,1.62,1.62,0,0,0,.53-.44,1.83,1.83,0,0,0,.3-.68,3.49,3.49,0,0,0,.1-.88v-.38h0a1.57,1.57,0,0,1-.74.78,2.26,2.26,0,0,1-1.05.25A2.42,2.42,0,0,1,95,50.09a2.24,2.24,0,0,1-.8-.62,2.69,2.69,0,0,1-.48-.92,3.68,3.68,0,0,1-.16-1.11,4.31,4.31,0,0,1,.13-1,3,3,0,0,1,.44-1,2.29,2.29,0,0,1,.82-.72,2.54,2.54,0,0,1,1.25-.29,2.11,2.11,0,0,1,1,.24,1.7,1.7,0,0,1,.71.72h0v-.82h.88v5.23A3,3,0,0,1,98.15,51.89ZM97,49.31a1.62,1.62,0,0,0,.53-.51,2.36,2.36,0,0,0,.29-.71,3.53,3.53,0,0,0,0-1.54,2.18,2.18,0,0,0-.29-.66,1.5,1.5,0,0,0-.5-.47,1.49,1.49,0,0,0-.75-.18,1.58,1.58,0,0,0-.78.18,1.42,1.42,0,0,0-.52.45,1.94,1.94,0,0,0-.3.67,3.33,3.33,0,0,0-.1.78,4.13,4.13,0,0,0,.08.78,2,2,0,0,0,.27.7,1.5,1.5,0,0,0,.49.51,1.46,1.46,0,0,0,.78.2A1.52,1.52,0,0,0,97,49.31Z"/><path class="cls-1" d="M106.6,49.9a2.58,2.58,0,0,1-1.62.49,2.91,2.91,0,0,1-1.19-.22,2.52,2.52,0,0,1-.85-.62,2.71,2.71,0,0,1-.51-.95,4.58,4.58,0,0,1-.19-1.21,3.27,3.27,0,0,1,.2-1.19,2.79,2.79,0,0,1,.55-1,2.57,2.57,0,0,1,1.94-.84,2.31,2.31,0,0,1,1.26.32,2.48,2.48,0,0,1,.81.8,3.36,3.36,0,0,1,.42,1.06,4.74,4.74,0,0,1,.1,1.1h-4.29a2.07,2.07,0,0,0,.09.71,1.58,1.58,0,0,0,.32.6,1.63,1.63,0,0,0,.57.42,1.94,1.94,0,0,0,.8.15,1.58,1.58,0,0,0,1-.28,1.29,1.29,0,0,0,.51-.84h.93A2.31,2.31,0,0,1,106.6,49.9Zm-.23-3.67a1.67,1.67,0,0,0-.34-.52,2,2,0,0,0-.51-.34,1.71,1.71,0,0,0-.65-.13,1.76,1.76,0,0,0-.66.13,1.61,1.61,0,0,0-.5.35,1.72,1.72,0,0,0-.33.51,1.94,1.94,0,0,0-.15.63h3.29A2.23,2.23,0,0,0,106.37,46.23Z"/><path class="cls-1" d="M111.71,44.55v.84h0a2.09,2.09,0,0,1,1.85-1,2.12,2.12,0,0,1,1,.22,1.25,1.25,0,0,1,.61.76,2,2,0,0,1,.76-.72,2.14,2.14,0,0,1,1-.26,3.2,3.2,0,0,1,.78.1,1.55,1.55,0,0,1,.59.29,1.28,1.28,0,0,1,.39.52,1.89,1.89,0,0,1,.14.75v4.2h-.94V46.52a2.57,2.57,0,0,0,0-.5,1.07,1.07,0,0,0-.16-.41.93.93,0,0,0-.34-.27,1.44,1.44,0,0,0-.56-.1,1.49,1.49,0,0,0-1.09.4,1.43,1.43,0,0,0-.4,1.07v3.56h-.94V46.52a2.59,2.59,0,0,0-.05-.51,1.26,1.26,0,0,0-.17-.41.85.85,0,0,0-.33-.26,1.32,1.32,0,0,0-.53-.1,1.42,1.42,0,0,0-.7.17,1.58,1.58,0,0,0-.48.4,1.41,1.41,0,0,0-.26.48,1.22,1.22,0,0,0-.08.42v3.56h-1V44.55Z"/><path class="cls-1" d="M126.65,49.9a2.55,2.55,0,0,1-1.61.49,2.87,2.87,0,0,1-1.19-.22,2.43,2.43,0,0,1-.85-.62,2.56,2.56,0,0,1-.51-.95,4.57,4.57,0,0,1-.2-1.21,3.5,3.5,0,0,1,.2-1.19,2.81,2.81,0,0,1,.56-1,2.63,2.63,0,0,1,.85-.62,2.74,2.74,0,0,1,1.08-.22,2.37,2.37,0,0,1,1.27.32,2.69,2.69,0,0,1,.81.8,3.36,3.36,0,0,1,.42,1.06,4.71,4.71,0,0,1,.09,1.1h-4.28a2.07,2.07,0,0,0,.09.71,1.45,1.45,0,0,0,.32.6,1.59,1.59,0,0,0,.56.42,2,2,0,0,0,.81.15,1.6,1.6,0,0,0,1-.28,1.32,1.32,0,0,0,.5-.84h.93A2.22,2.22,0,0,1,126.65,49.9Zm-.22-3.67a1.6,1.6,0,0,0-.86-.86,1.66,1.66,0,0,0-.64-.13,1.69,1.69,0,0,0-.66.13,1.54,1.54,0,0,0-.51.35,1.72,1.72,0,0,0-.33.51,1.92,1.92,0,0,0-.14.63h3.29A2.23,2.23,0,0,0,126.43,46.23Z"/><path class="cls-1" d="M131.77,44.55v.9h0a2,2,0,0,1,1.86-1,2.56,2.56,0,0,1,.94.16,1.6,1.6,0,0,1,.61.43,1.57,1.57,0,0,1,.32.66,3.2,3.2,0,0,1,.1.85v3.76h-.94V46.39a1.17,1.17,0,0,0-.31-.84,1.19,1.19,0,0,0-.86-.31,1.88,1.88,0,0,0-.74.14,1.45,1.45,0,0,0-.53.37,1.76,1.76,0,0,0-.31.57,2.36,2.36,0,0,0-.11.72v3.23h-.94V44.55Z"/><path class="cls-1" d="M141.82,44.55v.83h-1.14v3.55a1.61,1.61,0,0,0,0,.26.31.31,0,0,0,.11.16.4.4,0,0,0,.21.07l.36,0h.44v.83h-.72a3.65,3.65,0,0,1-.63-.05.9.9,0,0,1-.42-.18.78.78,0,0,1-.24-.38,2.27,2.27,0,0,1-.07-.64V45.38h-1v-.83h1V42.83h.94v1.72Z"/><path class="cls-1" d="M62.19,33.93,49.38,6V28.18q0,3.06.66,3.81a3.59,3.59,0,0,0,2.86,1h1.17v.91H42.53V33H43.7a3.38,3.38,0,0,0,3-1.27,7.55,7.55,0,0,0,.53-3.57V6.51a7.7,7.7,0,0,0-.48-3.18,2.74,2.74,0,0,0-1.27-1.19,6.69,6.69,0,0,0-2.94-.48V.76h9.39l12,26L75.79.76h9.39v.9H84a3.39,3.39,0,0,0-3,1.28,7.39,7.39,0,0,0-.54,3.57V28.18c0,2,.23,3.31.68,3.81A3.63,3.63,0,0,0,84,33h1.14v.91H71.1V33h1.17a3.32,3.32,0,0,0,3-1.27,7.39,7.39,0,0,0,.54-3.57V6L63,33.93Z"/><path class="cls-1" d="M111.1,22.82H98.26L96,28.06a8.12,8.12,0,0,0-.83,2.88,1.66,1.66,0,0,0,.72,1.33A6.17,6.17,0,0,0,99,33v.91H88.57V33a5.64,5.64,0,0,0,2.7-1A15.18,15.18,0,0,0,94,27.3L105.69,0h.86L118.1,27.59a12.39,12.39,0,0,0,2.53,4.32A5.14,5.14,0,0,0,123.79,33v.91H110.71V33a4.77,4.77,0,0,0,2.67-.66,1.69,1.69,0,0,0,.71-1.37,10.2,10.2,0,0,0-1-3.4ZM110.42,21l-5.63-13.4L99,21Z"/><path class="cls-1" d="M141.76,33v.91H127.55V33h1.17a3.55,3.55,0,0,0,3-1.2c.39-.52.58-1.77.58-3.77V6.63A11.17,11.17,0,0,0,132,3.3a2.25,2.25,0,0,0-1-1,4.6,4.6,0,0,0-2.25-.58h-1.17V.76h14.21v.91h-1.2a3.51,3.51,0,0,0-3,1.19c-.41.52-.61,1.78-.61,3.77V28.05a11.06,11.06,0,0,0,.32,3.33,2.14,2.14,0,0,0,1,1.05,4.56,4.56,0,0,0,2.23.59Z"/><rect class="cls-1" x="0.17" y="25.17" width="7.85" height="7.85"/><rect class="cls-2" x="23.72" y="25.17" width="7.85" height="7.85"/><rect class="cls-2" x="0.17" y="13.4" width="7.85" height="7.85"/><rect class="cls-2" x="23.72" y="13.4" width="7.85" height="7.85"/><rect class="cls-1" x="11.95" y="13.4" width="7.85" height="7.85"/><rect class="cls-2" x="11.95" y="25.17" width="7.85" height="7.85"/><rect class="cls-2" x="0.17" y="1.63" width="7.85" height="7.85"/><rect class="cls-1" x="23.72" y="1.63" width="7.85" height="7.85"/><rect class="cls-2" x="11.95" y="1.63" width="7.85" height="7.85"/></g></g></svg>