<?xml version="1.0" encoding="UTF-8"?><svg id="Layer_2" xmlns="http://www.w3.org/2000/svg" viewBox="0 0 21.31 21.31"><defs><style>.cls-1{fill:#f2f2f2;}.cls-2{fill:#bbbcbb;}</style></defs><g id="Layer_1-2"><path class="cls-2" d="m10.65,21.31h0C4.77,21.31,0,16.54,0,10.65h0C0,4.77,4.77,0,10.65,0h0c5.88,0,10.65,4.77,10.65,10.65h0c0,5.88-4.77,10.65-10.65,10.65Z"/><path class="cls-1" d="m10.02,6.25c0-.35.28-.63.63-.63s.63.28.63.63v4.5l2.04-2.04.89.89-3.55,3.55-3.55-3.55.89-.89,2.04,2.04v-4.5Z"/><path class="cls-1" d="m5.62,11.91h1.26v2.51h7.54v-2.51h1.26v2.51c0,.69-.56,1.26-1.26,1.26h-7.54c-.69,0-1.26-.56-1.26-1.26v-2.51Z"/></g></svg>