<svg xmlns="http://www.w3.org/2000/svg" viewBox="0 0 22.84 22.84"><defs><style>.cls-1{fill:#bbbcbb;}</style></defs><g id="Layer_2" data-name="Layer 2"><g id="Layer_1-2" data-name="Layer 1"><path class="cls-1" d="M13.05,7.31l4.56-4.57a.57.57,0,0,1,.77,0L20.1,4.47a.54.54,0,0,1,0,.76L15.53,9.8a.53.53,0,0,1-.47.14l-1.89,1.88a3.13,3.13,0,0,0,4.19-.19l4.57-4.57a3.13,3.13,0,0,0,0-4.42L20.21.91a3.16,3.16,0,0,0-4.43,0L11.22,5.48A3.12,3.12,0,0,0,11,9.67l1.89-1.88A.54.54,0,0,1,13.05,7.31Zm-6,14.62,4.57-4.57a3.12,3.12,0,0,0,.19-4.18L9.94,15.06a.54.54,0,0,1-.14.47L5.23,20.1a.54.54,0,0,1-.76,0L2.74,18.38a.57.57,0,0,1,0-.77l4.57-4.56a.54.54,0,0,1,.48-.14L9.67,11a3.12,3.12,0,0,0-4.19.2L.91,15.78a3.16,3.16,0,0,0,0,4.43l1.73,1.72A3.13,3.13,0,0,0,7.06,21.93ZM16.43,6.41a1.15,1.15,0,0,0-1.63,0L6.41,14.8A1.15,1.15,0,0,0,8,16.43L16.43,8A1.15,1.15,0,0,0,16.43,6.41Z"/></g></g></svg>