<?xml version="1.0" encoding="UTF-8"?><svg id="Layer_2" xmlns="http://www.w3.org/2000/svg" viewBox="0 0 448.67 136.3"><defs><style>.cls-1{font-size:9.55px;}.cls-1,.cls-2{fill:#464547;font-family:SourceSansPro-Regular, 'Source Sans Pro';}.cls-3{letter-spacing:-.02em;}.cls-4{letter-spacing:0em;}.cls-5{letter-spacing:1.64em;}.cls-6{letter-spacing:-.02em;}.cls-7{font-size:8.6px;}.cls-7,.cls-8{font-family:SourceSansPro-Bold, 'Source Sans Pro';font-weight:700;}.cls-7,.cls-8,.cls-9{fill:#13274b;}.cls-8{font-size:7.64px;}.cls-10{letter-spacing:0em;}.cls-11{letter-spacing:-.04em;}.cls-12{letter-spacing:-.02em;}.cls-13{letter-spacing:-.02em;}.cls-14{letter-spacing:-.01em;}.cls-15{fill:#fff;}.cls-16{letter-spacing:-.03em;}.cls-17{letter-spacing:0em;}.cls-18{letter-spacing:4.64em;}.cls-19{letter-spacing:1.89em;}.cls-20{letter-spacing:-.1em;}.cls-21{stroke:#13274b;stroke-width:.25px;}.cls-21,.cls-22{fill:none;}.cls-23{letter-spacing:-.02em;}.cls-24{letter-spacing:0em;}.cls-2{font-size:8.88px;}.cls-25{letter-spacing:-.04em;}.cls-26{letter-spacing:-.04em;}.cls-27{letter-spacing:-.02em;}.cls-28{letter-spacing:-.07em;}.cls-29{letter-spacing:0em;}.cls-30{letter-spacing:-.02em;}.cls-31{letter-spacing:-.02em;}.cls-32{letter-spacing:-.03em;}.cls-33{letter-spacing:-.03em;}.cls-34{letter-spacing:-.03em;}.cls-35{letter-spacing:-.03em;}.cls-36{letter-spacing:-.03em;}.cls-37{letter-spacing:0em;}.cls-9{font-family:SourceSansPro-SemiBold, 'Source Sans Pro';font-size:10.03px;font-weight:600;}.cls-38{letter-spacing:-.03em;}.cls-22{stroke:#003660;stroke-miterlimit:10;stroke-width:.14px;}.cls-39{letter-spacing:-.04em;}.cls-40{letter-spacing:3.74em;}.cls-41{letter-spacing:0em;}.cls-42{letter-spacing:-.08em;}.cls-43{letter-spacing:-.02em;}.cls-44{letter-spacing:2.95em;}.cls-45{letter-spacing:1.1em;}.cls-46{letter-spacing:2.99em;}.cls-47{letter-spacing:-.03em;}</style></defs><g id="Layer_1-2"><rect class="cls-15" x=".12" y=".12" width="448.42" height="136.05"/><line class="cls-22" x1="88.01" y1="15.46" x2="88.01" y2=".25"/><line class="cls-22" x1="147.61" y1="15.46" x2="147.61" y2=".25"/><line class="cls-22" x1="225.54" y1="15.46" x2="225.54" y2=".25"/><line class="cls-22" x1="296.17" y1="15.46" x2="296.17" y2=".25"/><line class="cls-22" x1="391.91" y1="15.46" x2="391.91" y2=".25"/><line class="cls-22" x1="448.57" y1="15.46" x2="448.57" y2=".25"/><line class="cls-22" x1=".25" y1="15.53" x2="88.01" y2="15.53"/><line class="cls-22" x1="88.01" y1="15.53" x2="147.61" y2="15.53"/><line class="cls-22" x1="88.01" y1="30.74" x2="88.01" y2="15.6"/><line class="cls-22" x1="147.61" y1="15.53" x2="225.54" y2="15.53"/><line class="cls-22" x1="147.61" y1="30.74" x2="147.61" y2="15.6"/><line class="cls-22" x1="225.54" y1="15.53" x2="296.17" y2="15.53"/><line class="cls-22" x1="225.54" y1="30.74" x2="225.54" y2="15.6"/><line class="cls-22" x1="296.17" y1="15.53" x2="391.91" y2="15.53"/><line class="cls-22" x1="296.17" y1="30.74" x2="296.17" y2="15.6"/><line class="cls-22" x1="391.91" y1="15.53" x2="448.64" y2="15.53"/><line class="cls-22" x1="391.91" y1="30.74" x2="391.91" y2="15.6"/><line class="cls-22" x1="448.57" y1="30.74" x2="448.57" y2="15.6"/><line class="cls-22" x1=".25" y1="30.81" x2="88.01" y2="30.81"/><line class="cls-22" x1="88.01" y1="30.81" x2="147.61" y2="30.81"/><line class="cls-22" x1="88.01" y1="46.02" x2="88.01" y2="30.89"/><line class="cls-22" x1="147.61" y1="30.81" x2="225.54" y2="30.81"/><line class="cls-22" x1="147.61" y1="46.02" x2="147.61" y2="30.89"/><line class="cls-22" x1="225.54" y1="30.81" x2="296.17" y2="30.81"/><line class="cls-22" x1="225.54" y1="46.02" x2="225.54" y2="30.89"/><line class="cls-22" x1="296.17" y1="30.81" x2="391.91" y2="30.81"/><line class="cls-22" x1="296.17" y1="46.02" x2="296.17" y2="30.89"/><line class="cls-22" x1="391.91" y1="30.81" x2="448.64" y2="30.81"/><line class="cls-22" x1="391.91" y1="46.02" x2="391.91" y2="30.89"/><line class="cls-22" x1="448.57" y1="46.02" x2="448.57" y2="30.89"/><line class="cls-22" x1=".25" y1="46.1" x2="88.01" y2="46.1"/><line class="cls-22" x1="88.01" y1="46.1" x2="147.61" y2="46.1"/><line class="cls-22" x1="88.01" y1="61.31" x2="88.01" y2="46.17"/><line class="cls-22" x1="147.61" y1="46.1" x2="225.54" y2="46.1"/><line class="cls-22" x1="147.61" y1="61.31" x2="147.61" y2="46.17"/><line class="cls-22" x1="225.54" y1="46.1" x2="296.17" y2="46.1"/><line class="cls-22" x1="225.54" y1="61.31" x2="225.54" y2="46.17"/><line class="cls-22" x1="296.17" y1="46.1" x2="391.91" y2="46.1"/><line class="cls-22" x1="296.17" y1="61.31" x2="296.17" y2="46.17"/><line class="cls-22" x1="391.91" y1="46.1" x2="448.64" y2="46.1"/><line class="cls-22" x1="391.91" y1="61.31" x2="391.91" y2="46.17"/><line class="cls-22" x1="448.57" y1="61.31" x2="448.57" y2="46.17"/><line class="cls-22" x1=".25" y1="61.38" x2="88.01" y2="61.38"/><line class="cls-22" x1="88.01" y1="61.38" x2="147.61" y2="61.38"/><line class="cls-22" x1="88.01" y1="76.59" x2="88.01" y2="61.45"/><line class="cls-22" x1="147.61" y1="61.38" x2="225.54" y2="61.38"/><line class="cls-22" x1="147.61" y1="76.59" x2="147.61" y2="61.45"/><line class="cls-22" x1="225.54" y1="61.38" x2="296.17" y2="61.38"/><line class="cls-22" x1="225.54" y1="76.59" x2="225.54" y2="61.45"/><line class="cls-22" x1="296.17" y1="61.38" x2="391.91" y2="61.38"/><line class="cls-22" x1="296.17" y1="76.59" x2="296.17" y2="61.45"/><line class="cls-22" x1="391.91" y1="61.38" x2="448.64" y2="61.38"/><line class="cls-22" x1="391.91" y1="76.59" x2="391.91" y2="61.45"/><line class="cls-22" x1="448.57" y1="76.59" x2="448.57" y2="61.45"/><line class="cls-22" x1=".25" y1="76.66" x2="88.01" y2="76.66"/><line class="cls-22" x1="88.01" y1="76.66" x2="147.61" y2="76.66"/><line class="cls-22" x1="88.01" y1="103.32" x2="88.01" y2="76.73"/><line class="cls-22" x1="147.61" y1="76.66" x2="225.54" y2="76.66"/><line class="cls-22" x1="147.61" y1="103.32" x2="147.61" y2="76.73"/><line class="cls-22" x1="225.54" y1="76.66" x2="296.17" y2="76.66"/><line class="cls-22" x1="225.54" y1="103.32" x2="225.54" y2="76.73"/><line class="cls-22" x1="296.17" y1="76.66" x2="391.91" y2="76.66"/><line class="cls-22" x1="296.17" y1="103.32" x2="296.17" y2="76.73"/><line class="cls-22" x1="391.91" y1="76.66" x2="448.64" y2="76.66"/><line class="cls-22" x1="391.91" y1="103.32" x2="391.91" y2="76.73"/><line class="cls-22" x1="448.57" y1="103.32" x2="448.57" y2="76.73"/><line class="cls-22" x1=".25" y1="103.39" x2="88.01" y2="103.39"/><line class="cls-22" x1="88.01" y1="103.39" x2="147.61" y2="103.39"/><line class="cls-22" x1="88.01" y1="118.6" x2="88.01" y2="103.46"/><line class="cls-22" x1="147.61" y1="103.39" x2="225.54" y2="103.39"/><line class="cls-22" x1="147.61" y1="118.6" x2="147.61" y2="103.46"/><line class="cls-22" x1="225.54" y1="103.39" x2="296.17" y2="103.39"/><line class="cls-22" x1="225.54" y1="118.6" x2="225.54" y2="103.46"/><line class="cls-22" x1="296.17" y1="103.39" x2="391.91" y2="103.39"/><line class="cls-22" x1="296.17" y1="118.6" x2="296.17" y2="103.46"/><line class="cls-22" x1="391.91" y1="103.39" x2="448.64" y2="103.39"/><line class="cls-22" x1="391.91" y1="118.6" x2="391.91" y2="103.46"/><line class="cls-22" x1="448.57" y1="118.6" x2="448.57" y2="103.46"/><line class="cls-22" x1=".25" y1="118.67" x2="88.01" y2="118.67"/><line class="cls-22" x1="88.01" y1="118.67" x2="147.61" y2="118.67"/><line class="cls-22" x1="88.01" y1="135.39" x2="88.01" y2="118.74"/><line class="cls-22" x1="147.61" y1="118.67" x2="225.54" y2="118.67"/><line class="cls-22" x1="147.61" y1="135.39" x2="147.61" y2="118.74"/><line class="cls-22" x1="225.54" y1="118.67" x2="296.17" y2="118.67"/><line class="cls-22" x1="225.54" y1="135.39" x2="225.54" y2="118.74"/><line class="cls-22" x1="296.17" y1="118.67" x2="391.91" y2="118.67"/><line class="cls-22" x1="296.17" y1="135.39" x2="296.17" y2="118.74"/><line class="cls-22" x1="391.91" y1="118.67" x2="448.64" y2="118.67"/><line class="cls-22" x1="391.91" y1="135.39" x2="391.91" y2="118.74"/><line class="cls-22" x1="448.57" y1="135.39" x2="448.57" y2="118.74"/><text class="cls-7" transform="translate(4.07 11.11)"><tspan class="cls-30" x="0" y="0">Q</tspan><tspan class="cls-13" x="5.72" y="0">uar</tspan><tspan class="cls-26" x="18.03" y="0">t</tspan><tspan class="cls-3" x="21.01" y="0">e</tspan><tspan class="cls-13" x="25.3" y="0">r</tspan><tspan x="28.55" y="0"> </tspan></text><text class="cls-8" transform="translate(34.14 11.11)"><tspan class="cls-12" x="0" y="0">(b</tspan><tspan class="cls-36" x="6.7" y="0">e</tspan><tspan class="cls-31" x="10.44" y="0">ginnnin</tspan><tspan class="cls-14" x="35.2" y="0">g</tspan><tspan x="39.17" y="0">)</tspan></text><text class="cls-7" transform="translate(91.83 11.11)"><tspan x="0" y="0">In</tspan><tspan class="cls-37" x="7.5" y="0">v</tspan><tspan x="11.93" y="0">e</tspan><tspan class="cls-6" x="16.38" y="0">s</tspan><tspan class="cls-41" x="20.02" y="0">tmen</tspan><tspan class="cls-19" x="40.05" y="0">t</tspan><tspan x="59.6" y="0">Security Pri</tspan><tspan class="cls-34" x="103.92" y="0">c</tspan><tspan class="cls-44" x="107.7" y="0">e</tspan><tspan x="137.53" y="0">Sha</tspan><tspan class="cls-17" x="151.75" y="0">r</tspan><tspan class="cls-29" x="155.1" y="0">es A</tspan><tspan class="cls-33" x="170" y="0">c</tspan><tspan class="cls-29" x="173.77" y="0">qui</tspan><tspan class="cls-17" x="185.95" y="0">r</tspan><tspan x="189.3" y="0">e</tspan><tspan class="cls-45" x="193.75" y="0">d</tspan><tspan class="cls-28" x="208.17" y="0">T</tspan><tspan class="cls-23" x="212.3" y="0">o</tspan><tspan class="cls-43" x="216.86" y="0">t</tspan><tspan class="cls-29" x="219.98" y="0">al Sha</tspan><tspan class="cls-17" x="242.9" y="0">r</tspan><tspan x="246.25" y="0">es A</tspan><tspan class="cls-32" x="261.15" y="0">c</tspan><tspan x="264.93" y="0">qui</tspan><tspan class="cls-17" x="277.11" y="0">r</tspan><tspan class="cls-29" x="280.46" y="0">e</tspan><tspan class="cls-5" x="284.91" y="0">d</tspan><tspan class="cls-42" x="303.94" y="0">T</tspan><tspan class="cls-47" x="308.07" y="0">o</tspan><tspan class="cls-30" x="312.62" y="0">t</tspan><tspan x="315.74" y="0">al </tspan><tspan class="cls-16" x="324.45" y="0">V</tspan><tspan x="328.94" y="0">alue</tspan></text><text class="cls-9" transform="translate(4.07 26.93)"><tspan x="0" y="0">1</tspan></text><text class="cls-1" transform="translate(91.83 26.99)"><tspan x="0" y="0">$812.5</tspan><tspan class="cls-46" x="26.11" y="0">0</tspan><tspan x="59.41" y="0">$20</tspan></text><text class="cls-1" transform="translate(229.36 26.99)"><tspan x="0" y="0">40.62</tspan><tspan class="cls-18" x="21.37" y="0">5</tspan><tspan x="70.47" y="0">40.625 </tspan></text><text class="cls-1" transform="translate(395.72 26.99)"><tspan x="0" y="0">$812.50</tspan></text><text class="cls-9" transform="translate(4.07 42.22)"><tspan x="0" y="0">2</tspan></text><text class="cls-1" transform="translate(91.83 42.27)"><tspan x="0" y="0">$812.5</tspan><tspan class="cls-46" x="26.11" y="0">0</tspan><tspan x="59.41" y="0">$22</tspan></text><text class="cls-1" transform="translate(229.36 42.27)"><tspan x="0" y="0">36.93</tspan><tspan class="cls-18" x="21.37" y="0">2</tspan><tspan x="70.47" y="0">77.557 </tspan></text><text class="cls-1" transform="translate(395.72 42.27)"><tspan x="0" y="0">$1706.25</tspan></text><text class="cls-9" transform="translate(4.07 57.5)"><tspan x="0" y="0">3</tspan></text><text class="cls-1" transform="translate(91.83 57.55)"><tspan x="0" y="0">$812.5</tspan><tspan class="cls-46" x="26.11" y="0">0</tspan><tspan x="59.41" y="0">$15</tspan></text><text class="cls-1" transform="translate(229.36 57.55)"><tspan x="0" y="0">54.16</tspan><tspan class="cls-18" x="21.37" y="0">7</tspan><tspan x="70.47" y="0">131.723 </tspan></text><text class="cls-1" transform="translate(395.72 57.55)"><tspan x="0" y="0">$1975.85</tspan></text><text class="cls-9" transform="translate(4.07 72.78)"><tspan x="0" y="0">4</tspan></text><text class="cls-1" transform="translate(91.83 72.83)"><tspan x="0" y="0">$812.5</tspan><tspan class="cls-46" x="26.11" y="0">0</tspan><tspan x="59.41" y="0">$17</tspan></text><text class="cls-1" transform="translate(229.36 72.83)"><tspan x="0" y="0">47.79</tspan><tspan class="cls-18" x="21.37" y="0">4</tspan><tspan x="70.47" y="0">179.518</tspan></text><text class="cls-1" transform="translate(395.72 72.83)"><tspan x="0" y="0">$3051.80</tspan></text><text class="cls-2" transform="translate(151.43 88.11) scale(1 1.08)"><tspan class="cls-27" x="0" y="0">A</tspan><tspan class="cls-4" x="4.67" y="0">vg. price of</tspan></text><text class="cls-2" transform="translate(151.43 99.57) scale(1 1.08)"><tspan x="0" y="0">acquisition $18.50</tspan></text><text class="cls-2" transform="translate(299.99 88.11) scale(1 1.08)"><tspan class="cls-27" x="0" y="0">A</tspan><tspan x="4.67" y="0">vg. cost per share </tspan></text><text class="cls-2" transform="translate(299.99 99.57) scale(1 1.08)"><tspan x="0" y="0">$18.10</tspan></text><text class="cls-7" transform="translate(4.07 114.25)"><tspan class="cls-20" x="0" y="0">T</tspan><tspan class="cls-39" x="3.95" y="0">o</tspan><tspan class="cls-11" x="8.34" y="0">t</tspan><tspan class="cls-13" x="11.29" y="0">a</tspan><tspan class="cls-3" x="15.64" y="0">l</tspan><tspan x="17.94" y="0"> </tspan></text><text class="cls-8" transform="translate(23.54 114.25)"><tspan class="cls-12" x="0" y="0">(q</tspan><tspan class="cls-31" x="6.7" y="0">ua</tspan><tspan class="cls-12" x="14.78" y="0">r</tspan><tspan class="cls-25" x="17.67" y="0">t</tspan><tspan class="cls-31" x="20.31" y="0">e</tspan><tspan class="cls-12" x="24.12" y="0">r </tspan><tspan class="cls-31" x="28.39" y="0">en</tspan><tspan class="cls-12" x="36.42" y="0">d</tspan><tspan x="40.65" y="0">)</tspan></text><text class="cls-1" transform="translate(91.83 114.84)"><tspan x="0" y="0">$325</tspan><tspan class="cls-40" x="18.99" y="0">0</tspan><tspan class="cls-24" x="59.45" y="0">$20</tspan></text><text class="cls-1" transform="translate(299.98 114.84)"><tspan x="0" y="0">179.518</tspan></text><text class="cls-1" transform="translate(395.72 114.84)"><tspan x="0" y="0">$3590.35</tspan></text><text class="cls-7" transform="translate(4.07 130.29)"><tspan class="cls-13" x="0" y="0">A</tspan><tspan class="cls-3" x="4.75" y="0">nn</tspan><tspan class="cls-13" x="14.26" y="0">ua</tspan><tspan class="cls-30" x="23.33" y="0">li</tspan><tspan class="cls-35" x="27.83" y="0">z</tspan><tspan class="cls-30" x="31.54" y="0">e</tspan><tspan class="cls-13" x="35.83" y="0">d</tspan><tspan class="cls-3" x="40.58" y="0"> </tspan><tspan class="cls-38" x="42.14" y="0">Re</tspan><tspan class="cls-30" x="51.36" y="0">tu</tspan><tspan class="cls-13" x="59.21" y="0">r</tspan><tspan class="cls-10" x="62.46" y="0">n</tspan></text><text class="cls-1" transform="translate(151.43 130.88)"><tspan x="0" y="0">0%</tspan></text><text class="cls-1" transform="translate(395.73 130.88)"><tspan x="0" y="0">16.09%</tspan></text><rect class="cls-21" x=".12" y=".12" width="448.42" height="136.05"/></g></svg>