<?xml version="1.0" encoding="UTF-8"?><svg id="Layer_2" xmlns="http://www.w3.org/2000/svg" viewBox="0 0 141.82 52.58"><defs><style>.cls-1{fill:#969796;}.cls-2{fill:#13274b;}</style></defs><g id="Layer_1-2"><path class="cls-2" d="m5.16,43.48c-.4-.28-.88-.42-1.43-.42-.47,0-.88.09-1.21.27-.34.18-.61.42-.83.71s-.38.64-.48,1.02c-.1.38-.16.78-.16,1.2,0,.45.05.88.16,1.28.1.4.26.75.48,1.05s.5.54.84.71c.34.18.75.27,1.22.27.35,0,.65-.06.92-.17.27-.11.5-.27.7-.48.2-.2.35-.44.46-.72s.18-.58.2-.91h1.05c-.1,1-.45,1.77-1.03,2.32-.58.55-1.38.83-2.39.83-.61,0-1.15-.11-1.6-.32-.46-.21-.84-.5-1.14-.87s-.53-.8-.68-1.31-.23-1.04-.23-1.62.08-1.12.24-1.62c.16-.51.4-.95.71-1.32s.7-.67,1.17-.89c.47-.22,1.01-.33,1.61-.33.41,0,.8.06,1.17.17.37.11.7.27.98.49s.53.48.72.8c.19.32.32.69.38,1.11h-1.05c-.12-.56-.38-.98-.78-1.26Z"/><path class="cls-2" d="m15.63,50.25c-.16.1-.39.14-.68.14-.24,0-.44-.07-.58-.2-.14-.14-.22-.36-.22-.67-.26.31-.56.53-.9.67-.34.14-.71.2-1.11.2-.26,0-.5-.03-.74-.09-.23-.06-.43-.15-.6-.28s-.3-.29-.4-.49c-.1-.2-.15-.45-.15-.74,0-.32.06-.59.17-.8.11-.21.26-.37.44-.5.18-.13.39-.23.62-.29.23-.07.47-.12.71-.17.26-.05.5-.09.74-.12.23-.03.44-.06.61-.11.18-.05.32-.12.42-.21.1-.09.16-.23.16-.4,0-.21-.04-.37-.12-.5-.08-.13-.18-.22-.3-.29-.12-.07-.26-.11-.41-.13s-.3-.03-.45-.03c-.4,0-.73.08-1,.23-.27.15-.41.44-.43.86h-.94c.01-.35.09-.65.22-.9s.31-.44.53-.59c.22-.15.47-.26.76-.33.28-.07.59-.1.91-.1.26,0,.52.02.77.06s.49.11.69.23c.21.11.37.27.5.48.13.21.19.47.19.81v2.94c0,.22.01.38.04.49s.11.15.26.15c.08,0,.18-.01.29-.04v.73Zm-1.53-2.93c-.12.09-.27.15-.46.19-.19.04-.39.07-.6.1-.21.03-.42.06-.64.09-.21.03-.41.09-.58.16-.17.07-.31.18-.42.31-.11.14-.16.32-.16.56,0,.15.03.28.09.39.06.11.14.19.24.26.1.07.22.11.35.14s.27.04.42.04c.31,0,.58-.04.8-.13.22-.08.4-.19.54-.32.14-.13.24-.27.31-.42.07-.15.1-.29.1-.42v-.96Z"/><path class="cls-2" d="m19.81,44.55v.78h.02c.16-.32.4-.55.73-.69.33-.14.7-.22,1.1-.22.44,0,.83.08,1.16.24.33.16.6.38.82.66.22.28.38.6.49.96.11.36.17.75.17,1.15s-.05.79-.16,1.15c-.11.36-.27.68-.49.95-.22.27-.49.48-.82.64-.33.16-.71.23-1.15.23-.14,0-.3-.01-.47-.04-.17-.03-.35-.08-.51-.14-.17-.07-.33-.16-.48-.27s-.28-.26-.38-.43h-.02v2.94h-.94v-7.9h.94Zm3.38,2.03c-.07-.25-.18-.48-.32-.68-.14-.2-.33-.36-.55-.48-.23-.12-.49-.18-.79-.18s-.59.06-.81.19c-.22.13-.4.29-.54.49-.14.2-.24.43-.3.69-.06.26-.09.52-.09.79,0,.28.03.55.1.81.07.26.17.49.32.69.14.2.33.36.56.48.23.12.5.18.83.18s.6-.06.81-.19c.22-.13.39-.29.53-.5s.23-.44.29-.71.09-.54.09-.82c0-.27-.04-.53-.11-.78Z"/><path class="cls-2" d="m27.79,43.52v-1.15h.94v1.15h-.94Zm.94,1.03v5.72h-.94v-5.72h.94Z"/><path class="cls-2" d="m34.98,44.55v.83h-1.14v3.55c0,.11,0,.2.03.27.02.07.05.12.1.16s.12.06.22.07c.09.01.21.02.36.02h.43v.83h-.72c-.24,0-.45-.02-.63-.05-.17-.03-.31-.09-.42-.18-.11-.09-.19-.21-.24-.38-.05-.16-.08-.38-.08-.64v-3.64h-.97v-.83h.97v-1.72h.94v1.72h1.14Z"/><path class="cls-2" d="m43.42,50.25c-.16.1-.39.14-.68.14-.24,0-.44-.07-.58-.2-.14-.14-.22-.36-.22-.67-.26.31-.56.53-.9.67-.34.14-.71.2-1.11.2-.26,0-.5-.03-.74-.09-.23-.06-.43-.15-.6-.28s-.3-.29-.4-.49c-.1-.2-.15-.45-.15-.74,0-.32.06-.59.17-.8.11-.21.26-.37.44-.5.18-.13.39-.23.62-.29.23-.07.47-.12.71-.17.26-.05.5-.09.74-.12.23-.03.44-.06.61-.11.18-.05.32-.12.42-.21.1-.09.16-.23.16-.4,0-.21-.04-.37-.12-.5-.08-.13-.18-.22-.3-.29-.12-.07-.26-.11-.41-.13s-.3-.03-.45-.03c-.4,0-.73.08-1,.23-.27.15-.41.44-.43.86h-.94c.01-.35.09-.65.22-.9s.31-.44.53-.59c.22-.15.47-.26.76-.33.28-.07.59-.1.91-.1.26,0,.52.02.77.06s.49.11.69.23c.21.11.37.27.5.48.13.21.19.47.19.81v2.94c0,.22.01.38.04.49s.11.15.26.15c.08,0,.18-.01.29-.04v.73Zm-1.53-2.93c-.12.09-.27.15-.46.19-.19.04-.39.07-.6.1-.21.03-.42.06-.64.09-.21.03-.41.09-.58.16-.17.07-.31.18-.42.31-.11.14-.16.32-.16.56,0,.15.03.28.09.39.06.11.14.19.24.26.1.07.22.11.35.14s.27.04.42.04c.31,0,.58-.04.8-.13.22-.08.4-.19.54-.32.14-.13.24-.27.31-.42.07-.15.1-.29.1-.42v-.96Z"/><path class="cls-2" d="m47.63,42.37v7.9h-.94v-7.9h.94Z"/><path class="cls-2" d="m58.45,42.37l2.49,6.64,2.5-6.64h1.44v7.9h-1v-6.57h-.02l-2.47,6.57h-.9l-2.47-6.57h-.02v6.57h-1v-7.9h1.44Z"/><path class="cls-2" d="m73.88,50.25c-.16.1-.39.14-.68.14-.24,0-.44-.07-.58-.2-.14-.14-.22-.36-.22-.67-.26.31-.56.53-.9.67-.34.14-.71.2-1.11.2-.26,0-.5-.03-.74-.09-.23-.06-.43-.15-.6-.28s-.3-.29-.4-.49c-.1-.2-.15-.45-.15-.74,0-.32.06-.59.17-.8.11-.21.26-.37.44-.5.18-.13.39-.23.62-.29.23-.07.47-.12.71-.17.26-.05.5-.09.74-.12.23-.03.44-.06.61-.11.18-.05.32-.12.42-.21.1-.09.16-.23.16-.4,0-.21-.04-.37-.12-.5-.08-.13-.18-.22-.3-.29-.12-.07-.26-.11-.41-.13s-.3-.03-.45-.03c-.4,0-.73.08-1,.23-.27.15-.41.44-.43.86h-.94c.01-.35.09-.65.22-.9s.31-.44.53-.59c.22-.15.47-.26.76-.33.28-.07.59-.1.91-.1.26,0,.52.02.77.06s.49.11.69.23c.21.11.37.27.5.48.13.21.19.47.19.81v2.94c0,.22.01.38.04.49s.11.15.26.15c.08,0,.18-.01.29-.04v.73Zm-1.53-2.93c-.12.09-.27.15-.46.19-.19.04-.39.07-.6.1-.21.03-.42.06-.64.09-.21.03-.41.09-.58.16-.17.07-.31.18-.42.31-.11.14-.16.32-.16.56,0,.15.03.28.09.39.06.11.14.19.24.26.1.07.22.11.35.14s.27.04.42.04c.31,0,.58-.04.8-.13.22-.08.4-.19.54-.32.14-.13.24-.27.31-.42.07-.15.1-.29.1-.42v-.96Z"/><path class="cls-2" d="m77.97,44.55v.91h.02c.39-.69,1.01-1.04,1.86-1.04.38,0,.69.05.94.16.25.1.45.25.61.43.16.18.26.4.33.66.06.25.09.54.09.85v3.76h-.94v-3.87c0-.35-.1-.63-.31-.84-.21-.21-.49-.31-.85-.31-.29,0-.54.04-.75.13-.21.09-.39.21-.53.38-.14.16-.25.35-.32.57s-.1.46-.1.71v3.23h-.94v-5.72h.89Z"/><path class="cls-2" d="m90.65,50.25c-.16.1-.39.14-.68.14-.24,0-.44-.07-.58-.2-.14-.14-.22-.36-.22-.67-.26.31-.56.53-.9.67-.34.14-.71.2-1.11.2-.26,0-.5-.03-.74-.09-.23-.06-.43-.15-.6-.28s-.3-.29-.4-.49c-.1-.2-.15-.45-.15-.74,0-.32.06-.59.17-.8.11-.21.26-.37.44-.5.18-.13.39-.23.62-.29.23-.07.47-.12.71-.17.26-.05.5-.09.74-.12.23-.03.44-.06.61-.11.18-.05.32-.12.42-.21.1-.09.16-.23.16-.4,0-.21-.04-.37-.12-.5-.08-.13-.18-.22-.3-.29-.12-.07-.26-.11-.41-.13s-.3-.03-.45-.03c-.4,0-.73.08-1,.23-.27.15-.41.44-.43.86h-.94c.01-.35.09-.65.22-.9s.31-.44.53-.59c.22-.15.47-.26.76-.33.28-.07.59-.1.91-.1.26,0,.52.02.77.06s.49.11.69.23c.21.11.37.27.5.48.13.21.19.47.19.81v2.94c0,.22.01.38.04.49s.11.15.26.15c.08,0,.18-.01.29-.04v.73Zm-1.53-2.93c-.12.09-.27.15-.46.19-.19.04-.39.07-.6.1-.21.03-.42.06-.64.09-.21.03-.41.09-.58.16-.17.07-.31.18-.42.31-.11.14-.16.32-.16.56,0,.15.03.28.09.39.06.11.14.19.24.26.1.07.22.11.35.14s.27.04.42.04c.31,0,.58-.04.8-.13.22-.08.4-.19.54-.32.14-.13.24-.27.31-.42.07-.15.1-.29.1-.42v-.96Z"/><path class="cls-2" d="m98.15,51.89c-.43.46-1.1.7-2.01.7-.27,0-.54-.03-.81-.09-.28-.06-.53-.16-.75-.29-.23-.13-.41-.31-.56-.52s-.23-.48-.24-.79h.94c0,.17.06.31.16.43s.22.21.36.29c.14.07.3.13.47.16s.33.05.49.05c.31,0,.57-.05.79-.16s.39-.25.53-.44c.14-.19.24-.42.3-.68.06-.27.09-.56.09-.87v-.38h-.02c-.16.35-.41.61-.74.78-.33.17-.68.25-1.05.25-.43,0-.8-.08-1.12-.23-.32-.15-.58-.36-.8-.63-.21-.26-.37-.57-.48-.92s-.16-.72-.16-1.11c0-.34.04-.69.13-1.05.09-.36.24-.68.44-.97.21-.29.48-.53.82-.72s.76-.28,1.25-.28c.36,0,.69.08,1,.24.3.16.54.4.71.71h.01v-.82h.89v5.24c0,.94-.21,1.64-.64,2.1Zm-1.2-2.57c.22-.13.39-.3.53-.51.13-.21.23-.45.29-.71.06-.27.09-.53.09-.8,0-.25-.03-.5-.09-.74-.06-.24-.15-.46-.28-.66-.13-.2-.3-.35-.5-.47-.21-.12-.46-.18-.75-.18s-.56.06-.78.17c-.21.11-.39.27-.53.46-.14.19-.24.41-.3.66-.06.25-.09.51-.09.79s.03.52.08.78.14.49.27.7c.13.21.29.38.5.51s.47.19.78.19.57-.06.79-.19Z"/><path class="cls-2" d="m106.6,49.9c-.43.32-.97.49-1.62.49-.46,0-.85-.07-1.19-.22-.34-.15-.62-.35-.85-.62-.23-.27-.4-.58-.52-.95-.11-.37-.18-.77-.19-1.21,0-.44.07-.83.2-1.2s.32-.68.56-.94.52-.47.85-.62c.33-.15.69-.22,1.08-.22.51,0,.93.11,1.27.32.34.21.61.48.81.8.2.32.34.68.42,1.06.08.38.11.75.09,1.1h-4.28c0,.25.02.49.09.71.07.23.17.42.32.6.15.17.34.31.56.42.23.1.5.15.81.15.4,0,.72-.09.98-.28.25-.18.42-.46.5-.84h.93c-.13.64-.4,1.13-.83,1.45Zm-.23-3.68c-.09-.2-.2-.37-.34-.51-.14-.14-.31-.26-.51-.34-.2-.08-.41-.13-.65-.13s-.46.04-.66.13c-.2.09-.36.2-.5.35-.14.15-.25.32-.33.52-.08.2-.13.4-.14.63h3.29c-.02-.22-.06-.43-.15-.63Z"/><path class="cls-2" d="m111.71,44.55v.84h.02c.43-.65,1.04-.97,1.85-.97.35,0,.68.07.96.22.29.15.49.4.61.75.19-.31.44-.55.76-.72s.66-.25,1.04-.25c.29,0,.55.03.78.09.23.06.43.16.6.29.17.13.3.3.39.52s.14.46.14.76v4.2h-.94v-3.75c0-.18-.01-.34-.04-.5-.03-.15-.09-.29-.17-.4-.08-.11-.19-.2-.34-.27-.14-.07-.33-.1-.56-.1-.46,0-.83.13-1.1.4-.27.27-.4.62-.4,1.06v3.56h-.94v-3.75c0-.18-.02-.35-.05-.51-.03-.16-.09-.29-.17-.4-.08-.11-.19-.2-.33-.27-.14-.06-.31-.09-.53-.09-.27,0-.51.06-.7.17-.2.11-.35.24-.48.4-.12.15-.21.32-.27.48s-.08.3-.08.42v3.56h-.94v-5.72h.89Z"/><path class="cls-2" d="m126.65,49.9c-.43.32-.97.49-1.62.49-.46,0-.85-.07-1.19-.22-.34-.15-.62-.35-.85-.62-.23-.27-.4-.58-.52-.95-.11-.37-.18-.77-.19-1.21,0-.44.07-.83.2-1.2s.32-.68.56-.94.52-.47.85-.62c.33-.15.69-.22,1.08-.22.51,0,.93.11,1.27.32.34.21.61.48.81.8.2.32.34.68.42,1.06.08.38.11.75.09,1.1h-4.28c0,.25.02.49.09.71.07.23.17.42.32.6.15.17.34.31.56.42.23.1.5.15.81.15.4,0,.72-.09.98-.28.25-.18.42-.46.5-.84h.93c-.13.64-.4,1.13-.83,1.45Zm-.23-3.68c-.09-.2-.2-.37-.34-.51-.14-.14-.31-.26-.51-.34-.2-.08-.41-.13-.65-.13s-.46.04-.66.13c-.2.09-.36.2-.5.35-.14.15-.25.32-.33.52-.08.2-.13.4-.14.63h3.29c-.02-.22-.06-.43-.15-.63Z"/><path class="cls-2" d="m131.77,44.55v.91h.02c.39-.69,1.01-1.04,1.86-1.04.38,0,.69.05.94.16.25.1.45.25.61.43.16.18.26.4.33.66.06.25.09.54.09.85v3.76h-.94v-3.87c0-.35-.1-.63-.31-.84-.21-.21-.49-.31-.85-.31-.29,0-.54.04-.75.13-.21.09-.39.21-.53.38-.14.16-.25.35-.32.57s-.1.46-.1.71v3.23h-.94v-5.72h.89Z"/><path class="cls-2" d="m141.82,44.55v.83h-1.14v3.55c0,.11,0,.2.03.27.02.07.05.12.1.16s.12.06.22.07c.09.01.21.02.36.02h.43v.83h-.72c-.24,0-.45-.02-.63-.05-.17-.03-.31-.09-.42-.18-.11-.09-.19-.21-.24-.38-.05-.16-.08-.38-.08-.64v-3.64h-.97v-.83h.97v-1.72h.94v1.72h1.14Z"/><path class="cls-2" d="m62.19,33.93l-12.82-27.91v22.16c0,2.04.22,3.31.66,3.82.6.68,1.56,1.03,2.86,1.03h1.17v.9h-11.54v-.9h1.18c1.4,0,2.4-.42,2.98-1.27.36-.52.54-1.71.54-3.57V6.51c0-1.47-.16-2.53-.49-3.18-.23-.47-.65-.87-1.26-1.19-.61-.32-1.59-.48-2.95-.48v-.9h9.39l12.03,25.95L75.79.76h9.39v.9h-1.15c-1.42,0-2.42.42-3.01,1.27-.36.52-.54,1.71-.54,3.57v21.67c0,2.04.23,3.31.68,3.82.6.68,1.56,1.03,2.86,1.03h1.15v.9h-14.09v-.9h1.17c1.42,0,2.41-.42,2.99-1.27.36-.52.54-1.71.54-3.57V6.02l-12.79,27.91h-.81Z"/><path class="cls-2" d="m111.1,22.82h-12.84l-2.25,5.23c-.56,1.29-.84,2.25-.84,2.89,0,.5.24.95.72,1.33.48.38,1.52.63,3.12.75v.9h-10.44v-.9c1.39-.24,2.28-.56,2.69-.96.83-.78,1.75-2.37,2.76-4.77L105.69,0h.86l11.55,27.59c.93,2.22,1.77,3.66,2.53,4.32.76.66,1.82,1.03,3.17,1.11v.9h-13.08v-.9c1.32-.07,2.21-.28,2.67-.66.47-.37.7-.83.7-1.37,0-.72-.33-1.85-.98-3.4l-2-4.77Zm-.69-1.81l-5.63-13.4-5.77,13.4h11.4Z"/><path class="cls-2" d="m141.76,33.02v.9h-14.21v-.9h1.17c1.37,0,2.37-.4,2.98-1.2.39-.52.59-1.78.59-3.77V6.63c0-1.68-.1-2.79-.32-3.33-.16-.41-.5-.76-1-1.05-.72-.39-1.47-.58-2.25-.58h-1.17v-.91h14.21v.91h-1.2c-1.35,0-2.34.4-2.96,1.2-.41.52-.61,1.78-.61,3.77v21.43c0,1.68.1,2.79.32,3.33.16.41.51.76,1.03,1.05.7.39,1.45.59,2.23.59h1.2Z"/><rect class="cls-2" x=".17" y="25.17" width="7.85" height="7.85"/><rect class="cls-1" x="23.72" y="25.17" width="7.85" height="7.85"/><rect class="cls-1" x=".17" y="13.4" width="7.85" height="7.85"/><rect class="cls-1" x="23.72" y="13.4" width="7.85" height="7.85"/><rect class="cls-2" x="11.95" y="13.4" width="7.85" height="7.85"/><rect class="cls-1" x="11.95" y="25.17" width="7.85" height="7.85"/><rect class="cls-1" x=".17" y="1.63" width="7.85" height="7.85"/><rect class="cls-2" x="23.72" y="1.63" width="7.85" height="7.85"/><rect class="cls-1" x="11.95" y="1.63" width="7.85" height="7.85"/></g></svg>